ffmpeg started on 2016-11-26 at 13:12:27
Report written to "Output/NVENCh264/results/ffmpeg/crowd_run_2160p50ll4000k.log"
Command line:
Tools/ffmpeg/ffmpeg -benchmark -y -i Input/y4m/crowd_run_2160p50.y4m -c:v h264_nvenc -preset ll -b:v 4000k -an Output/NVENCh264/encoded/crowd_run_2160p50ll4000k.mkv
ffmpeg version N-82227-gdb23fde Copyright (c) 2000-2016 the FFmpeg developers
  built with gcc 5.4.0 (Ubuntu 5.4.0-6ubuntu1~16.04.2) 20160609
  configuration: --prefix=/home/jaroslav/ffmpeg_build --pkg-config-flags=--static --extra-cflags=-I/home/jaroslav/ffmpeg_build/include --extra-ldflags=-L/home/jaroslav/ffmpeg_build/lib --bindir=/home/jaroslav/bin --enable-gpl --enable-libass --enable-libfdk-aac --enable-libfreetype --enable-libmp3lame --enable-libopus --enable-libtheora --enable-libvorbis --enable-libvpx --enable-libx264 --enable-libx265 --enable-nvenc --enable-libmfx --enable-libxvid --enable-libgsm --enable-libopencore-amrnb --enable-version3 --enable-nonfree
  libavutil      55. 35.100 / 55. 35.100
  libavcodec     57. 66.101 / 57. 66.101
  libavformat    57. 57.100 / 57. 57.100
  libavdevice    57.  2.100 / 57.  2.100
  libavfilter     6. 66.100 /  6. 66.100
  libswscale      4.  3.100 /  4.  3.100
  libswresample   2.  4.100 /  2.  4.100
  libpostproc    54.  2.100 / 54.  2.100
Input #0, yuv4mpegpipe, from 'Input/y4m/crowd_run_2160p50.y4m':
  Duration: 00:00:10.00, start: 0.000000, bitrate: 4976642 kb/s
    Stream #0:0: Video: rawvideo (I420 / 0x30323449), yuv420p(progressive), 3840x2160, SAR 1:1 DAR 16:9, 50 fps, 50 tbr, 50 tbn, 50 tbc
[h264_nvenc @ 0x2d371c0] The variable bitrate rate-control requires the 'qmin' and/or 'qmax' option set.
Output #0, matroska, to 'Output/NVENCh264/encoded/crowd_run_2160p50ll4000k.mkv':
  Metadata:
    encoder         : Lavf57.57.100
    Stream #0:0: Video: h264 (h264_nvenc) (Main) (H264 / 0x34363248), yuv420p, 3840x2160 [SAR 1:1 DAR 16:9], q=-1--1, 4000 kb/s, 50 fps, 1k tbn, 50 tbc
    Metadata:
      encoder         : Lavc57.66.101 h264_nvenc
    Side data:
      cpb: bitrate max/min/avg: 0/0/4000000 buffer size: 8000000 vbv_delay: -1
Stream mapping:
  Stream #0:0 -> #0:0 (rawvideo (native) -> h264 (h264_nvenc))
Press [q] to stop, [?] for help
frame=    5 fps=0.0 q=0.0 size=       0kB time=00:00:00.00 bitrate=N/A speed=   0x    frame=    8 fps=7.1 q=0.0 size=       0kB time=00:00:00.00 bitrate=N/A speed=   0x    frame=   21 fps= 13 q=0.0 size=       0kB time=00:00:00.00 bitrate=N/A speed=   0x    frame=   32 fps= 13 q=49.0 size=       1kB time=00:00:00.02 bitrate= 284.6kbits/s speed=0.00843x    frame=   46 fps= 15 q=49.0 size=       1kB time=00:00:00.30 bitrate=  19.9kbits/s speed= 0.1x    frame=   64 fps= 18 q=49.0 size=       1kB time=00:00:00.66 bitrate=   9.0kbits/s speed=0.188x    frame=   82 fps= 20 q=49.0 size=       1kB time=00:00:01.02 bitrate=   5.9kbits/s speed=0.253x    frame=   88 fps= 19 q=49.0 size=       1kB time=00:00:01.14 bitrate=   5.2kbits/s speed=0.251x    frame=   89 fps= 11 q=49.0 size=       1kB time=00:00:01.16 bitrate=   5.1kbits/s speed=0.146x    frame=   90 fps= 10 q=49.0 size=       1kB time=00:00:01.18 bitrate=   5.1kbits/s speed=0.135x    frame=  107 fps= 12 q=49.0 size=       1kB time=00:00:01.52 bitrate=   3.9kbits/s speed=0.164x    frame=  125 fps= 13 q=49.0 size=       1kB time=00:00:01.88 bitrate=   3.2kbits/s speed=0.192x    frame=  143 fps= 14 q=49.0 size=       1kB time=00:00:02.24 bitrate=   2.7kbits/s speed=0.217x    frame=  150 fps= 14 q=49.0 size=       1kB time=00:00:02.38 bitrate=   2.5kbits/s speed=0.219x    frame=  154 fps= 13 q=49.0 size=       1kB time=00:00:02.46 bitrate=   2.4kbits/s speed=0.215x    frame=  157 fps= 13 q=49.0 size=       1kB time=00:00:02.52 bitrate=   2.4kbits/s speed=0.208x    frame=  168 fps= 13 q=49.0 size=       1kB time=00:00:02.74 bitrate=   2.2kbits/s speed=0.214x    frame=  185 fps= 14 q=49.0 size=       1kB time=00:00:03.08 bitrate=   1.9kbits/s speed=0.231x    frame=  191 fps= 14 q=49.0 size=       1kB time=00:00:03.20 bitrate=   1.9kbits/s speed=0.231x    frame=  200 fps= 14 q=49.0 size=       1kB time=00:00:03.38 bitrate=   1.8kbits/s speed=0.234x    frame=  205 fps= 14 q=49.0 size=       1kB time=00:00:03.48 bitrate=   1.7kbits/s speed=0.232x    frame=  210 fps= 14 q=49.0 size=       1kB time=00:00:03.58 bitrate=   1.7kbits/s speed=0.231x    frame=  227 fps= 14 q=49.0 size=       1kB time=00:00:03.92 bitrate=   1.5kbits/s speed=0.245x    frame=  244 fps= 15 q=49.0 size=       1kB time=00:00:04.26 bitrate=   1.4kbits/s speed=0.255x    frame=  257 fps= 15 q=49.0 size=       1kB time=00:00:04.52 bitrate=   1.3kbits/s speed=0.262x    frame=  268 fps= 15 q=49.0 size=       1kB time=00:00:04.74 bitrate=   1.3kbits/s speed=0.265x    frame=  273 fps= 15 q=49.0 size=       1kB time=00:00:04.84 bitrate=   1.2kbits/s speed=0.263x    frame=  285 fps= 15 q=49.0 size=    3210kB time=00:00:05.08 bitrate=5175.9kbits/s speed=0.265x    frame=  303 fps= 15 q=49.0 size=    3210kB time=00:00:05.44 bitrate=4833.4kbits/s speed=0.276x    frame=  308 fps= 15 q=49.0 size=    3210kB time=00:00:05.54 bitrate=4746.2kbits/s speed=0.274x    frame=  313 fps= 15 q=49.0 size=    3210kB time=00:00:05.64 bitrate=4662.0kbits/s speed=0.272x    frame=  319 fps= 15 q=49.0 size=    3210kB time=00:00:05.76 bitrate=4564.9kbits/s speed=0.271x    frame=  321 fps= 14 q=49.0 size=    3210kB time=00:00:05.80 bitrate=4533.4kbits/s speed=0.26x    frame=  325 fps= 14 q=49.0 size=    3210kB time=00:00:05.88 bitrate=4471.8kbits/s speed=0.254x    frame=  327 fps= 14 q=49.0 size=    3210kB time=00:00:05.92 bitrate=4441.6kbits/s speed=0.248x    frame=  331 fps= 13 q=49.0 size=    3210kB time=00:00:06.00 bitrate=4382.4kbits/s speed=0.243x    frame=  336 fps= 13 q=49.0 size=    3210kB time=00:00:06.10 bitrate=4310.5kbits/s speed=0.242x    frame=  342 fps= 13 q=49.0 size=    3210kB time=00:00:06.22 bitrate=4227.4kbits/s speed=0.242x    frame=  360 fps= 14 q=49.0 size=    3210kB time=00:00:06.58 bitrate=3996.1kbits/s speed=0.25x    frame=  378 fps= 14 q=49.0 size=    3210kB time=00:00:06.94 bitrate=3788.9kbits/s speed=0.259x    frame=  396 fps= 14 q=49.0 size=    3210kB time=00:00:07.30 bitrate=3602.0kbits/s speed=0.267x    frame=  414 fps= 15 q=49.0 size=    3210kB time=00:00:07.66 bitrate=3432.8kbits/s speed=0.275x    frame=  432 fps= 15 q=49.0 size=    3210kB time=00:00:08.02 bitrate=3278.7kbits/s speed=0.283x    frame=  442 fps= 15 q=49.0 size=    3210kB time=00:00:08.22 bitrate=3198.9kbits/s speed=0.284x    frame=  459 fps= 16 q=49.0 size=    3210kB time=00:00:08.56 bitrate=3071.9kbits/s speed=0.291x    frame=  477 fps= 16 q=49.0 size=    3210kB time=00:00:08.92 bitrate=2947.9kbits/s speed=0.298x    frame=  495 fps= 16 q=49.0 size=    3210kB time=00:00:09.28 bitrate=2833.6kbits/s speed=0.304x    frame=  500 fps= 16 q=49.0 size=    3210kB time=00:00:09.38 bitrate=2803.4kbits/s speed=0.303x    frame=  500 fps= 16 q=49.0 Lsize=    6481kB time=00:00:09.98 bitrate=5319.0kbits/s speed=0.322x    
video:6476kB audio:0kB subtitle:0kB other streams:0kB global headers:0kB muxing overhead: 0.065624%
bench: utime=1.300s
bench: maxrss=1408944kB
